<svg width="78" height="102" viewBox="0 0 78 102" fill="none" xmlns="http://www.w3.org/2000/svg">
<path d="M39 0C18.0265 0 0.963623 17.0697 0.963623 38.0515C0.963623 69.313 35.214 99.8371 36.6726 101.121C37.3374 101.707 38.1686 102 39 102C39.8315 102 40.6626 101.707 41.3278 101.121C42.7857 99.8374 77.0364 69.3133 77.0364 38.0515C77.0364 17.0697 59.9735 0 39 0ZM39 93.6508C31.4276 86.313 8.00746 61.7014 8.00746 38.0515C8.00746 20.954 21.9107 7.04384 39 7.04384C56.0893 7.04384 69.9926 20.954 69.9926 38.0515C69.9926 61.7011 46.5724 86.3126 39 93.6508Z" fill="#1C1C1C"/>
<path d="M16 11.5L5 26.5V53.5L35.5 98C36.8333 97.3333 43.2 91.5 58 73.5C72.8 55.5 74.1667 43.6667 73 40L67 22L53 8.5L42 4L26 6.5L16 11.5Z" fill="#1C1C1C"/>
<circle cx="39" cy="38" r="11" fill="white"/>
</svg>
