<svg width="102" height="102" viewBox="0 0 102 102" fill="none" xmlns="http://www.w3.org/2000/svg">
<g clip-path="url(#clip0_21_16)">
<path d="M64.2717 74.3075L65.859 63.1521L72.5498 58.9986C73.6704 58.3035 74.2739 57.0115 74.0874 55.7061L71.5192 37.6936C70.4707 30.794 64.372 25.17 57.8608 25.0419C61.5812 22.6117 64.0491 18.4002 64.0491 13.6179C64.0491 6.10901 57.97 0 50.4976 0C43.0251 0 36.9463 6.10901 36.9463 13.6179C36.9463 18.4002 39.4142 22.6114 43.1347 25.0419C36.6235 25.1706 30.5244 30.7947 29.4725 37.7239L26.9084 55.7061C26.7219 57.0115 27.3254 58.3035 28.4456 58.9986L35.1357 63.1521L36.744 74.4511C24.6579 76.2802 14.7745 80.5865 14.7745 87.7094C14.7742 97.5278 33.5525 102 51 102C68.4475 102 87.2254 97.5278 87.2254 87.7094C87.2258 80.3946 76.8012 76.0494 64.2717 74.3075ZM50.4976 6.64683C54.3049 6.64683 57.402 9.7738 57.402 13.6179C57.402 17.4616 54.3045 20.5892 50.4976 20.5892C46.6906 20.5892 43.5931 17.4619 43.5931 13.6179C43.5935 9.77414 46.6906 6.64683 50.4976 6.64683ZM33.7946 54.4958L36.0479 38.6917C36.6252 34.8922 39.9751 31.6828 43.3624 31.6828H57.6338C61.0207 31.6828 64.3702 34.8926 64.9431 38.6614L67.2005 54.4955L61.0348 58.3231C60.1985 58.8423 59.6357 59.7047 59.4969 60.6783L55.9595 85.5354C55.9578 85.5481 55.9558 85.5612 55.954 85.5739C55.8706 86.2137 55.3019 86.6818 55.0371 86.6818H45.9577C45.6929 86.6818 45.1238 86.2141 45.0404 85.5739C45.0387 85.5612 45.0366 85.5481 45.0349 85.5354L41.4968 60.6783C41.3584 59.7043 40.7952 58.842 39.9593 58.3231L33.7946 54.4958ZM73.2144 92.3114C67.3303 94.2731 59.4406 95.3532 51 95.3532C42.5594 95.3532 34.67 94.2727 28.7856 92.3114C23.221 90.4568 21.4214 88.41 21.4214 87.7094C21.4214 87.0088 23.221 84.9619 28.7856 83.1073C31.3971 82.2367 34.4059 81.5416 37.6809 81.0368L38.4523 86.4558C38.9661 90.3116 42.2589 93.3293 45.9577 93.3293H55.0371C58.7359 93.3293 62.0284 90.3122 62.5425 86.4562L63.3341 80.8925C66.991 81.4063 70.3436 82.1505 73.2144 83.1073C78.779 84.9619 80.5786 87.0088 80.5786 87.7094C80.5786 88.41 78.779 90.4568 73.2144 92.3114Z" fill="#1C1C1C"/>
<ellipse cx="51" cy="13.5" rx="8" ry="7.5" fill="#1C1C1C"/>
<path d="M31 55.5L34 36L39 28.5L59 28L67.5 36L70 55.5L63 62L59 89.5H42.5L38 62L31 55.5Z" fill="#1C1C1C"/>
</g>
<defs>
<clipPath id="clip0_21_16">
<rect width="102" height="102" fill="white"/>
</clipPath>
</defs>
</svg>
